<svg version="1.1" id="Camada_1" xmlns="http://www.w3.org/2000/svg" x="0" y="0" viewBox="0 0 2000 662.7" style="enable-background:new 0 0 2000 662.7" xml:space="preserve"><style>.st1{fill:#fff}</style><g id="g44" transform="translate(-99 -255.075)"><g id="g11"><linearGradient id="path9_1_" gradientUnits="userSpaceOnUse" x1="1869.777" y1="414.285" x2="2198" y2="414.285" gradientTransform="matrix(1 0 0 -1 -99 917.197)"><stop offset="0" style="stop-color:#1daafb"/><stop offset="1" style="stop-color:#106cc9"/></linearGradient><path id="path9" d="M2099 364.5h-96.5l-167.4 144.4v-93.3l-64.3 55.5v164.7c0 4.6 5.5 7.2 9.1 4.2L2099 364.5z" style="fill:url(#path9_1_)"/></g><g id="g17"><path id="path13" class="st1" d="M1226.4 525.4h.9c16.8 0 30.5 13.7 30.5 30.5s-13.7 30.5-30.5 30.5h-.9c-16.8 0-30.5-13.7-30.5-30.5s13.6-30.5 30.5-30.5z"/><path id="rect15" class="st1" d="M1201 618.8h51.8v205.9H1201V618.8z"/></g><path id="path19" class="st1" d="M1631.2 808.3c-.1-1-1.3-1.5-2.1-.7-5.6 5.9-13.4 11.1-23.7 15.9-11.4 5.2-24.2 7.9-38.2 7.9-8.5 0-17-1.3-25.2-3.9-8.4-2.7-15.9-6.6-22.9-12.1-6.9-5.5-12.4-12.4-16.7-20.9-4.3-8.5-6.4-18.5-6.4-29.8 0-11.7 2.2-22.2 6.6-31.4s10.6-17 18.5-23.2c7.9-6.3 17.4-11 28.6-14.3s23.5-4.9 36.9-4.9c4.1 0 8.6.1 13.6.2s9.8.3 14.5.7c5.2.3 10.7.6 16.3.9v-4.9c0-10.2-4.1-18.4-12.3-24.2-8.2-5.8-18.9-8.8-32.1-8.8-14.6 0-26.4 1.9-35.2 5.7-8.8 3.8-16.5 7.9-23.2 12.3l-23.7-35.2c4.1-2.9 8.8-5.9 14.1-9.1 5.2-3.1 11.4-5.8 18.5-8.4 7.1-2.4 15.2-4.5 24.4-6.2s20-2.4 32.3-2.4c13.1 0 25.1 1.9 35.8 5.5 10.7 3.7 19.9 8.8 27.4 15.3 7.7 6.6 13.5 14.5 17.5 23.7s6.2 19.3 6.2 30.1v138.2h-48.3l-1.2-16zm-.1-76.5c-5.2-.3-10.5-.6-15.3-.9-4.1-.3-8.4-.5-13-.7-4.5-.1-8.5-.2-11.6-.2-16.7 0-28.5 3.3-35.2 9.9-6.7 6.6-10.1 14.2-10.1 22.6 0 8.8 3.1 15.7 9.4 20.7 7.4 5.9 19.2 8.4 35.2 7.2 10.2-1.9 18.7-5.6 25.7-11.1 4.4-3.5 8-7.7 10.8-12.3s4.2-9.6 4.2-15l-.1-20.2z"/><path id="path21" class="st1" d="M99 531.9h55.7l141.9 208.2V531.9h54v292.8h-54.5L153 614v210.7H99V531.9z"/><path id="path23" class="st1" d="m587.2 795.1-7.2 7.2c-3.9 3.9-9.6 8.1-17.2 12.5-7.4 4.4-17 8.4-28.6 11.8-11.6 3.5-25.4 5.2-41.5 5.2-16.4 0-31.4-2.8-44.8-8.4-13.5-5.6-25-13.2-34.5-23.1-9.5-9.8-16.8-21.6-22-35.3s-7.7-29-7.7-45.6c0-15.2 2.6-29.4 7.7-42.4s12.3-24.4 21.5-34c9.2-9.6 20.2-17.3 33-22.9 12.8-5.6 26.8-8.4 42.4-8.4 18.7 0 34.6 3.5 47.6 10.3 13 6.9 23.5 15.9 31.4 27.1 7.9 11.1 13.6 23.7 17.2 37.7 3.5 14.1 5.2 28.5 5.2 43.1v7.4H435.9c0 7.7 1.6 14.5 5.1 20.7 3.4 6.2 7.8 11.4 13.1 15.8 5.5 4.4 11.6 7.8 18.5 10.1s13.7 3.5 20.4 3.5c10 0 18.7-.9 26.1-2.9 7.4-1.9 13.8-4.1 19.2-6.6 5.2-2.4 9.6-5.1 13-7.9 3.4-2.8 5.9-5 7.7-6.9l28.2 32zm-50.6-94.9c0-5.2-1-10.6-3-15.8-2.1-5.2-5.1-10-9.1-14.3-3.9-4.2-9.1-7.8-15.2-10.6-6.2-2.8-13.1-4.2-21.1-4.2-8.5 0-16 1.4-22.6 4.2-6.6 2.8-12.1 6.3-16.5 10.6s-7.8 9.1-10.1 14.3-3.5 10.6-3.5 15.8h101.1z"/><path id="path25" class="st1" d="M622.1 531.9h51.8v292.8h-51.8V531.9z"/><path id="path27" class="st1" d="M706.3 721.7c0-15 2.7-29 8.1-42.4 5.5-13.4 13-25 22.6-35 9.6-10 21.3-17.9 35-23.7 13.7-5.8 28.6-8.8 45.1-8.8 16.4 0 31.4 2.9 45.1 8.8 13.7 5.9 25.2 13.8 35 23.7 9.6 10 17.2 21.6 22.6 35s8.1 27.4 8.1 42.4-2.7 29-8.1 42.4c-5.5 13.4-13 25.1-22.6 35.2-9.6 10.1-21.3 18.1-35 23.9-13.6 5.8-28.7 8.8-45.1 8.8s-31.4-2.9-45.1-8.8c-13.6-5.8-25.2-13.8-35-23.9-9.6-10.1-17.2-21.8-22.6-35.2-5.3-13.4-8.1-27.6-8.1-42.4zM817.1 787c10 0 18.6-2 25.9-5.9s13.4-9.2 18.2-15.6 8.4-13.5 10.8-21.1c2.3-7.7 3.5-15.2 3.5-22.9 0-7.3-1.2-14.9-3.5-22.6s-5.9-14.8-10.8-21.1c-4.9-6.3-10.9-11.4-18.2-15.3-7.3-3.9-15.9-5.9-25.9-5.9s-18.6 2-25.9 5.9c-7.3 3.9-13.4 9.1-18.2 15.3-4.9 6.3-8.4 13.4-10.8 21.1-2.3 7.8-3.5 15.3-3.5 22.6 0 7.7 1.2 15.2 3.5 22.9 2.3 7.7 5.9 14.6 10.8 21.1 4.9 6.4 10.9 11.6 18.2 15.6 7.2 4 15.9 5.9 25.9 5.9z"/><path id="path29" class="st1" d="M996.8 858.2c8.2 5.6 17.1 9.6 26.6 12.1s20.7 3.7 33.6 3.7c13.5 0 24.7-4.1 33.8-12.3 9.1-8.2 13.6-19.6 13.6-34.3V805c-7.1 5.9-14.8 10.6-23.1 14.3-8.4 3.7-19.4 5.5-33.2 5.5-15 0-28.2-2.4-39.7-7.4-11.6-5-21.5-12-29.6-20.9-8.2-8.9-14.4-19.5-18.7-31.6-4.3-12.2-6.4-25.6-6.4-40.2 0-15.2 2.7-29.6 8.1-43.1 5.5-13.5 13.1-25.2 23.2-35.2 10.1-10 22.3-17.8 36.7-23.5 14.4-5.7 30.4-8.6 48.3-8.6s34.4 1.5 49.4 4.4c15.1 2.9 27.3 6 36.7 9.2v200.3c0 14.4-2.4 27.1-7.4 38.2-5 11.1-11.8 20.4-20.7 28.1-8.8 7.7-19.2 13.4-31.2 17.3-12 3.9-25.1 5.9-39.1 5.9-10.8 0-20.4-.5-28.8-1.5-8.4-1-15.8-2.4-22.4-4.2s-12.5-3.9-18-6.6c-5.5-2.7-10.5-5.7-15.2-9.2l23.5-38zm107.5-194.5c-4.1-1.5-8.4-2.6-12.8-3.3s-11.3-1.2-20.7-1.2c-10.6 0-19.7 1.7-27.6 5.2-7.9 3.5-14.6 8.2-20.2 14.1-5.6 5.8-9.8 12.7-12.5 20.4-2.8 7.8-4.2 15.9-4.2 24.4 0 15.8 3.9 29.2 11.8 40s20.7 16.3 38.2 16.3c15.8 0 27.8-3.4 35.8-10.1s12.1-17.4 12.1-32.1l.1-73.7z"/><path id="path31" class="st1" d="M1476.2 797.6c-9.6 10.2-21.1 18.5-34.3 24.6-13.1 6.2-28.6 9.2-46.1 9.2s-33.2-2.7-47-7.9c-13.8-5.2-25.3-12.8-34.7-22.4-9.4-9.6-16.6-21.3-21.5-34.7-5-13.5-7.4-28.5-7.4-44.8 0-15 2.7-29 8.1-42.4 5.5-13.4 13-25 22.6-35s21.3-17.9 35-23.7c13.6-5.8 28.6-8.8 45.1-8.8 16.7 0 31.9 3 45.6 9.1s25.4 14.2 35.2 24.4l-33 33.3c-5.8-6.7-12.8-12-20.7-15.8-7.9-3.8-17-5.7-27.3-5.7-10 0-18.6 1.9-25.9 5.5-7.3 3.7-13.4 8.4-18.2 14.3-4.9 5.8-8.4 12.8-10.8 20.7-2.3 7.9-3.5 15.9-3.5 24.2 0 7.9 1.2 15.7 3.5 23.2 2.3 7.7 5.9 14.5 10.8 20.7 4.9 6.2 10.9 11.1 18.2 15 7.3 3.8 15.9 5.7 25.9 5.7 10.2 0 19.6-2 28.1-5.9 8.5-3.9 15.7-9.3 21.5-16l30.8 33.2z"/><path id="path33" class="st1" d="M1783.3 808.8c-2.1-3.4-3.9-5.8-5.3-7.2-.8-.8-1.9-1.4-3.1-2 3.1-.2 5.7-1.3 7.5-3.3 1.9-2 2.8-4.3 2.8-7 0-1.9-.6-3.6-1.6-5.3-1.2-1.6-2.7-2.9-4.5-3.5-2-.7-5-1-9.3-1h-11.3c-.7 0-1.2.6-1.2 1.2v35.1h5.8v-15.4h3.5c2.1 0 3.6.5 4.6 1.3 1.5 1.2 3.6 3.9 6.2 8.5l3.3 5.7h7.2l-4.6-7.1zm-13.1-13.4h-7.1v-11h6.6c2.9 0 4.9.2 5.9.7 1 .3 1.9 1 2.4 1.9s.9 1.9.9 2.9c0 1.7-.6 3-1.9 4.1-1.1.8-3.4 1.4-6.8 1.4z"/><path id="path35" class="st1" d="M1770.8 769.7c15.3 0 27.9 12.5 27.9 27.9 0 15.3-12.5 27.9-27.9 27.9-15.3 0-27.9-12.5-27.9-27.9 0-15.3 12.5-27.9 27.9-27.9m0-5.8c-18.7 0-33.8 15.1-33.8 33.8s15.1 33.8 33.8 33.8c18.7 0 33.8-15.1 33.8-33.8s-15.1-33.8-33.8-33.8z"/><linearGradient id="path42_1_" gradientUnits="userSpaceOnUse" x1="1683.133" y1="523.722" x2="2011.356" y2="523.722" gradientTransform="matrix(1 0 0 -1 -99 917.197)"><stop offset="0" style="stop-color:#179016"/><stop offset="1" style="stop-color:#8ae12b"/></linearGradient><path id="path42" d="M1584.1 531.9h96.5L1848 387.5v93.3l64.3-55.5V260.6c0-4.6-5.5-7.2-9.1-4.2l-319.1 275.5z" style="fill:url(#path42_1_)"/></g></svg>